<svg width="17" height="21" viewBox="0 0 17 21" fill="none" xmlns="http://www.w3.org/2000/svg">
<mask id="path-1-inside-1_1201_25733" fill="white">
<path fill-rule="evenodd" clip-rule="evenodd" d="M4.64361 2.7983C4.91271 2.61471 5.08617 2.32322 5.18996 2.01443C5.48571 1.13447 6.31728 0.50061 7.29689 0.50061H9.70413C10.6838 0.50061 11.5154 1.13454 11.8111 2.01457C11.9149 2.32337 12.0883 2.61488 12.3574 2.7985C14.1653 4.03203 15.3521 6.10855 15.3521 8.46227V12.4802C15.3521 12.6392 15.39 12.7959 15.4627 12.9373L16.8871 15.7093C17.2291 16.3748 16.7459 17.1664 15.9977 17.1664H1.0028C0.254583 17.1664 -0.22862 16.3748 0.113357 15.7093L1.64849 12.7219C1.64851 12.7219 1.64854 12.7219 1.64857 12.7219C1.64862 12.7219 1.64866 12.7218 1.64866 12.7218V8.46227C1.64866 6.10843 2.8356 4.03182 4.64361 2.7983ZM5.29497 19.2443C5.05441 18.7472 5.52195 18.2775 6.07423 18.2775H10.926C11.4782 18.2775 11.9458 18.7472 11.7052 19.2443C11.3457 19.9873 10.5845 20.4998 9.70371 20.4998H7.29648C6.41566 20.4998 5.65453 19.9873 5.29497 19.2443Z"/>
</mask>
<path d="M5.29497 19.2443L7.09527 18.3731L5.29497 19.2443ZM1.64849 12.7219L3.42737 13.636L1.64849 12.7219ZM16.8871 15.7093L18.666 14.7952L16.8871 15.7093ZM11.8111 2.01457L13.7069 1.37752L11.8111 2.01457ZM12.3574 2.7985L11.2302 4.45056L12.3574 2.7985ZM15.4627 12.9373L17.2415 12.0232L15.4627 12.9373ZM11.7052 19.2443L13.5055 20.1155L11.7052 19.2443ZM5.18996 2.01443L7.08574 2.6516L5.18996 2.01443ZM7.08574 2.6516C7.1161 2.56128 7.20201 2.50061 7.29689 2.50061V-1.49939C5.43255 -1.49939 3.85532 -0.292338 3.29417 1.37725L7.08574 2.6516ZM7.29689 2.50061H9.70413V-1.49939H7.29689V2.50061ZM9.70413 2.50061C9.79902 2.50061 9.88493 2.56129 9.91528 2.65162L13.7069 1.37752C13.1459 -0.292212 11.5686 -1.49939 9.70413 -1.49939V2.50061ZM11.2302 4.45056C12.5153 5.32743 13.3521 6.79741 13.3521 8.46227H17.3521C17.3521 5.41969 15.8153 2.73664 13.4847 1.14643L11.2302 4.45056ZM13.3521 8.46227V12.4802H17.3521V8.46227H13.3521ZM13.6838 13.8514L15.1083 16.6234L18.666 14.7952L17.2415 12.0232L13.6838 13.8514ZM15.9977 15.1664H1.0028V19.1664H15.9977V15.1664ZM1.89223 16.6234L3.42737 13.636L-0.130378 11.8078L-1.66552 14.7952L1.89223 16.6234ZM3.64866 12.7218V8.46227H-0.351342V12.7218H3.64866ZM3.64866 8.46227C3.64866 6.79733 4.48554 5.32727 5.77077 4.45043L3.51645 1.14618C1.18566 2.73636 -0.351342 5.41954 -0.351342 8.46227H3.64866ZM10.926 16.2775H6.07423V20.2775H10.926V16.2775ZM9.70371 22.4998C11.3802 22.4998 12.8246 21.5225 13.5055 20.1155L9.90492 18.3731C9.86667 18.4522 9.78882 18.4998 9.70371 18.4998V22.4998ZM7.29648 22.4998H9.70371V18.4998H7.29648V22.4998ZM3.49468 20.1155C4.17554 21.5225 5.61995 22.4998 7.29648 22.4998V18.4998C7.21137 18.4998 7.13352 18.4522 7.09527 18.3731L3.49468 20.1155ZM6.07423 16.2775C5.25886 16.2775 4.43826 16.6168 3.87692 17.2635C3.26103 17.973 2.98523 19.0627 3.49468 20.1155L7.09527 18.3731C7.20689 18.6038 7.26194 18.897 7.21136 19.2063C7.16284 19.503 7.03138 19.7315 6.89765 19.8855C6.64801 20.1731 6.33733 20.2775 6.07423 20.2775V16.2775ZM1.64857 14.7219C2.75319 14.7219 3.64866 13.8264 3.64866 12.7218H-0.351342C-0.351342 11.6173 0.54405 10.7219 1.64857 10.7219V14.7219ZM3.42737 13.636C3.08761 14.2972 2.40433 14.7219 1.64857 14.7219V10.7219C0.892753 10.7219 0.209409 11.1466 -0.130378 11.8078L3.42737 13.636ZM1.0028 15.1664C1.751 15.1664 2.23421 15.9579 1.89223 16.6234L-1.66552 14.7952C-2.69145 16.7917 -1.24184 19.1664 1.0028 19.1664V15.1664ZM15.1083 16.6234C14.7663 15.9579 15.2495 15.1664 15.9977 15.1664V19.1664C18.2423 19.1664 19.6919 16.7917 18.666 14.7952L15.1083 16.6234ZM9.91528 2.65162C10.1011 3.2046 10.4775 3.93702 11.2302 4.45056L13.4847 1.14643C13.5942 1.22119 13.6562 1.29902 13.6844 1.34108C13.711 1.38084 13.7136 1.39741 13.7069 1.37752L9.91528 2.65162ZM13.3521 12.4802C13.3521 12.9572 13.4658 13.4272 13.6838 13.8514L17.2415 12.0232C17.3142 12.1646 17.3521 12.3213 17.3521 12.4802H13.3521ZM10.926 20.2775C10.6629 20.2775 10.3522 20.1731 10.1025 19.8855C9.9688 19.7315 9.83735 19.503 9.78883 19.2063C9.73825 18.897 9.79329 18.6038 9.90492 18.3731L13.5055 20.1155C14.015 19.0627 13.7392 17.973 13.1233 17.2635C12.5619 16.6168 11.7413 16.2775 10.926 16.2775V20.2775ZM3.29417 1.37725C3.28749 1.39714 3.29013 1.38058 3.31675 1.34081C3.3449 1.29876 3.40688 1.22094 3.51645 1.14618L5.77077 4.45043C6.52342 3.93693 6.89989 3.20456 7.08574 2.6516L3.29417 1.37725Z" fill="#667085" mask="url(#path-1-inside-1_1201_25733)"/>
</svg>
