<svg width="15" height="13" viewBox="0 0 15 13" fill="none" xmlns="http://www.w3.org/2000/svg">
<path d="M1.52231 6.5C1.85513 6.5 2.12158 6.22933 2.1566 5.89835C2.47733 2.86745 5.19528 0.5 8.49994 0.5C12.0204 0.5 14.8749 3.18667 14.8749 6.5C14.8749 9.81333 12.0204 12.5 8.49994 12.5C7.40138 12.5 6.37152 12.2388 5.47198 11.7792C5.12315 11.6009 5.04659 11.1512 5.2813 10.8375C5.49758 10.5485 5.90009 10.4832 6.22407 10.6424C6.90515 10.977 7.67959 11.1667 8.49994 11.1667C11.2412 11.1667 13.4583 9.08 13.4583 6.5C13.4583 3.92 11.2412 1.83333 8.49994 1.83333C5.97513 1.83333 3.89498 3.60349 3.58224 5.89888C3.53731 6.22866 3.81142 6.5 4.14424 6.5C4.69035 6.5 4.95486 7.16821 4.55672 7.54199L3.51773 8.51742C3.13293 8.87868 2.53362 8.87868 2.14882 8.51742L1.10983 7.54199C0.711688 7.16821 0.976201 6.5 1.52231 6.5Z" fill="#667085"/>
</svg>
