<svg width="46" height="46" viewBox="0 0 46 46" fill="none" xmlns="http://www.w3.org/2000/svg">
<rect x="3" y="3" width="40" height="40" rx="20" fill="#F2F4F7"/>
<g clip-path="url(#clip0_506_49950)">
<path d="M26.3335 26.3333L23.0002 23M23.0002 23L19.6669 26.3333M23.0002 23V30.5M29.9919 28.325C30.8047 27.8819 31.4467 27.1807 31.8168 26.3322C32.1868 25.4836 32.2637 24.536 32.0354 23.6389C31.807 22.7418 31.2865 21.9463 30.5558 21.3779C29.8251 20.8095 28.9259 20.5006 28.0002 20.5H26.9502C26.698 19.5244 26.2278 18.6186 25.5752 17.8508C24.9225 17.083 24.1042 16.4732 23.182 16.0672C22.2597 15.6611 21.2573 15.4695 20.2503 15.5066C19.2433 15.5437 18.2578 15.8086 17.3679 16.2814C16.4779 16.7542 15.7068 17.4226 15.1124 18.2363C14.518 19.0501 14.1158 19.9879 13.936 20.9795C13.7563 21.971 13.8036 22.9904 14.0746 23.9611C14.3455 24.9317 14.8329 25.8282 15.5002 26.5833" stroke="#475467" stroke-width="1.66667" stroke-linecap="round" stroke-linejoin="round"/>
</g>
<rect x="3" y="3" width="40" height="40" rx="20" stroke="#F9FAFB" stroke-width="6"/>
<defs>
<clipPath id="clip0_506_49950">
<rect width="20" height="20" fill="white" transform="translate(13 13)"/>
</clipPath>
</defs>
</svg>
